<?xml version="1.0" encoding="UTF-8" standalone="no"?>
<svg width="312px" height="276px" viewBox="0 0 312 276" version="1.1" xmlns="http://www.w3.org/2000/svg" xmlns:xlink="http://www.w3.org/1999/xlink" xmlns:sketch="http://www.bohemiancoding.com/sketch/ns">
    <!-- Generator: Sketch 3.4.4 (17249) - http://www.bohemiancoding.com/sketch -->
    <title>bb8</title>
    <desc>Created with Sketch.</desc>
    <defs></defs>
    <g id="Page-1" stroke="none" stroke-width="1" fill="none" fill-rule="evenodd" sketch:type="MSPage">
        <g id="Minions" sketch:type="MSArtboardGroup" transform="translate(-426.000000, -1263.000000)">
            <g id="bb8" sketch:type="MSLayerGroup" transform="translate(425.000000, 1263.000000)">
                <path d="M139,24 C135.7,24 133,26.7 133,30 L133,102 C133,105.3 135.7,108 139,108 C142.3,108 145,105.3 145,102 L145,30 C145,26.7 142.3,24 139,24" id="Fill-1" fill="#8C8C8C" sketch:type="MSShapeGroup"></path>
                <path d="M163,0 C159.7,0 157,2.7 157,6 L157,90 C157,93.3 159.7,96 163,96 C166.3,96 169,93.3 169,90 L169,6 C169,2.7 166.3,0 163,0" id="Fill-3" fill="#8C8C8C" sketch:type="MSShapeGroup"></path>
                <path d="M149.458,60.1776 C65.554,64.1256 1.006,136.4016 1.006,220.4016 L1.006,251.9976 L0.994,251.9976 L1.006,251.9976 L1.006,251.9976 L1.006,251.9976 L36.994,275.9976 L276.994,275.9976 L312.994,251.9976 L312.994,251.9976 L312.994,215.9976 C312.994,127.3416 239.038,55.9536 149.458,60.1776" id="Fill-5" fill="#BEBEBE" sketch:type="MSShapeGroup"></path>
                <path d="M157,198.0012 C183.472,198.0012 205,176.4732 205,150.0012 C205,123.5292 183.472,102.0012 157,102.0012 C130.528,102.0012 109,123.5292 109,150.0012 C109,176.4732 130.528,198.0012 157,198.0012" id="Fill-8" fill="#505050" sketch:type="MSShapeGroup"></path>
                <path d="M241,228 C254.26,228 265,217.248 265,204 C265,190.74 254.26,180 241,180 C227.752,180 217,190.74 217,204 C217,217.248 227.752,228 241,228" id="Fill-10" fill="#505050" sketch:type="MSShapeGroup"></path>
                <path d="M1,252 L313,252 L313,240 L1,240 L1,252 Z" id="Fill-12" fill="#505050" sketch:type="MSShapeGroup"></path>
                <path d="M157,114 C137.116,114 121,130.116 121,150 C121,169.884 137.116,186 157,186 C176.884,186 193,169.884 193,150 C193,130.116 176.884,114 157,114" id="Fill-14" fill="#323232" sketch:type="MSShapeGroup"></path>
                <path d="M145,132 C138.376,132 133,137.376 133,144 C133,150.624 138.376,156 145,156 C151.624,156 157,150.624 157,144 C157,137.376 151.624,132 145,132" id="Fill-15" fill="#999999" sketch:type="MSShapeGroup"></path>
                <path d="M241,186 C231.064,186 223,194.064 223,204 C223,213.936 231.064,222 241,222 C250.936,222 259,213.936 259,204 C259,194.064 250.936,186 241,186" id="Fill-16" fill="#BEBEBE" sketch:type="MSShapeGroup"></path>
                <path d="M241,192 C234.376,192 229,197.376 229,204 C229,210.624 234.376,216 241,216 C247.624,216 253,210.624 253,204 C253,197.376 247.624,192 241,192" id="Fill-17" fill="#323232" sketch:type="MSShapeGroup"></path>
                <path d="M157,207 C150.376,207 145,212.376 145,219 C145,225.624 150.376,231 157,231 C163.624,231 169,225.624 169,219 C169,212.376 163.624,207 157,207" id="Fill-18" fill="#FFFFFF" sketch:type="MSShapeGroup"></path>
                <path d="M60.2272,127.3584 C59.1232,126.4464 57.7672,126.0024 56.4232,126.0024 C54.6952,126.0024 52.9672,126.7464 51.7792,128.1984 C39.5632,143.0904 30.5992,159.9384 25.1272,178.2864 C24.1912,181.4664 25.9912,184.8024 29.1712,185.7504 C29.7472,185.9184 30.3232,186.0024 30.8872,186.0024 C33.4792,186.0024 35.8552,184.3224 36.6352,181.7064 C41.6392,164.9064 49.8592,149.4504 61.0552,135.8064 C63.1552,133.2384 62.7832,129.4584 60.2272,127.3584" id="Fill-19" fill="#E6E6E6" sketch:type="MSShapeGroup"></path>
                <path d="M85,240 L109,240 L109,204 L85,204 L85,240 Z" id="Fill-20" fill="#E67E21" sketch:type="MSShapeGroup"></path>
                <path d="M1,220.4052 L1,240.0012 L73,240.0012 L73,204.0012 L1.864,204.0012 C1.312,209.4132 1,214.8732 1,220.4052" id="Fill-21" fill="#E67E21" sketch:type="MSShapeGroup"></path>
                <path d="M312.1396,204 L277.0036,204 L277.0036,240 L313.0036,240 L313.0036,220.404 C313.0036,214.872 312.6796,209.412 312.1396,204" id="Fill-22" fill="#E67E21" sketch:type="MSShapeGroup"></path>
                <path d="M35.6416,120 L96.9976,120 L108.9976,108 L46.0456,108 C42.3976,111.828 38.9056,115.812 35.6416,120" id="Fill-23" fill="#E67E21" sketch:type="MSShapeGroup"></path>
                <path d="M269.3128,108 L205.0048,108 L217.0048,120 L279.7288,120 C276.4648,115.824 272.9968,111.816 269.3128,108" id="Fill-24" fill="#E67E21" sketch:type="MSShapeGroup"></path>
                <path d="M216.7024,72 L98.0944,72 C84.6544,77.664 72.1984,85.188 61.0024,94.272 L61.0024,96 L256.4464,96 C244.5544,86.124 231.1864,78.012 216.7024,72" id="Fill-25" fill="#8C8C8C" sketch:type="MSShapeGroup"></path>
            </g>
        </g>
    </g>
</svg>