<?xml version="1.0" encoding="UTF-8" standalone="no"?>
<svg width="336px" height="383px" viewBox="0 0 336 383" version="1.1" xmlns="http://www.w3.org/2000/svg" xmlns:xlink="http://www.w3.org/1999/xlink" xmlns:sketch="http://www.bohemiancoding.com/sketch/ns">
    <!-- Generator: Sketch 3.4.4 (17249) - http://www.bohemiancoding.com/sketch -->
    <title>captain-phasma</title>
    <desc>Created with Sketch.</desc>
    <defs></defs>
    <g id="Page-1" stroke="none" stroke-width="1" fill="none" fill-rule="evenodd" sketch:type="MSPage">
        <g id="Minions" sketch:type="MSArtboardGroup" transform="translate(-1990.000000, -1963.000000)">
            <g id="captain-phasma" sketch:type="MSLayerGroup" transform="translate(1989.000000, 1963.000000)">
                <path d="M313.0664,195.2532 L313.0664,195.2532 L313.0664,135.2532 L313.0664,123.2532 C313.0664,56.9772 248.5904,3.2532 169.0664,3.2532 C89.5424,3.2532 25.0664,56.9772 25.0664,123.2532 L25.0664,147.2532 L25.0664,195.2532 L0.9824,273.2532 L55.8224,364.6692 C65.5064,380.7972 85.9664,386.7612 102.8024,378.3492 L152.8784,353.3052 C163.0184,348.2412 174.9464,348.2412 185.0744,353.3052 L235.1624,378.3492 C251.9864,386.7612 272.4584,380.7972 282.1304,364.6692 L336.9824,273.2532 L313.0664,195.2532 Z" id="Fill-194" fill="#BEBEBE" sketch:type="MSShapeGroup"></path>
                <path d="M168.9788,3.2568 C89.4908,3.2928 25.0628,57.0048 25.0628,123.2568 L25.0628,147.2568 L25.0628,195.2568 L0.9788,273.2568 L55.8308,364.6608 C65.5028,380.8008 85.9748,386.7528 102.7988,378.3408 L152.8748,353.3088 C157.9508,350.7648 163.4588,349.5048 168.9788,349.5048 L168.9788,3.2568 Z" id="Fill-195" fill="#CFCFCF" sketch:type="MSShapeGroup"></path>
                <path d="M72.62,195.2532 C48.62,195.2532 48.62,147.2532 48.62,147.2532 L144.62,147.2532 C144.62,147.2532 96.62,195.2532 72.62,195.2532" id="Fill-196" fill="#323232" sketch:type="MSShapeGroup"></path>
                <path d="M264.62,195.2532 C240.62,195.2532 192.62,147.2532 192.62,147.2532 L288.62,147.2532 C288.62,147.2532 288.62,195.2532 264.62,195.2532" id="Fill-197" fill="#323232" sketch:type="MSShapeGroup"></path>
                <path d="M267.7088,287.3772 C263.1968,292.5372 255.2528,292.8252 250.3568,288.0372 C210.8888,249.4692 169.0688,249.2532 169.0688,249.2532 C169.0688,249.2532 127.2368,249.4692 87.7808,288.0372 C82.8848,292.8252 74.9408,292.5372 70.4288,287.3772 L37.0688,249.2532 L51.0728,207.2532 L66.1328,207.2532 C78.4928,207.2532 90.6488,204.0612 101.4128,197.9892 L150.3608,170.3652 C161.7368,163.5252 175.9568,163.5252 187.3328,170.3652 L236.9648,198.1212 C247.6808,204.1092 259.7408,207.2532 272.0048,207.2532 L287.0648,207.2532 L301.0688,249.2532 L267.7088,287.3772 Z M301.0688,195.2532 L301.0688,147.2532 L288.6488,147.2532 L252.7088,147.2532 L168.8408,147.2532 L84.9848,147.2532 L49.0448,147.2532 L37.0688,147.2532 L37.0688,195.2532 L19.0688,255.2532 L65.1608,311.5812 C69.3728,316.7292 76.9568,317.5332 82.0568,313.2492 C98.3408,299.5932 134.2448,273.2532 169.0688,273.2532 C203.8808,273.2532 239.7968,299.5932 256.0808,313.2492 C261.1808,317.5332 268.7648,316.7292 272.9768,311.5812 L319.0688,255.2532 L301.0688,195.2532 Z" id="Fill-198" fill="#323232" sketch:type="MSShapeGroup"></path>
                <path d="M322.6052,265.5144 L266.6972,355.4064 C263.4692,360.7944 257.5412,364.1544 251.2412,364.1544 C248.4452,364.1544 245.7452,363.5064 243.2132,362.2464 L193.1252,337.2024 C185.6732,333.4704 177.3212,331.5024 168.9812,331.5024 C160.6412,331.5024 152.2892,333.4704 144.8252,337.2024 L94.7372,362.2464 C92.2172,363.5064 89.5172,364.1544 86.7092,364.1544 C80.4092,364.1544 74.4932,360.7944 71.2652,355.4184 L15.3572,265.5384 L12.9812,273.2544 L66.1052,358.4904 C70.4252,365.6904 78.3212,370.1544 86.7092,370.1544 C90.4532,370.1544 94.0652,369.2904 97.4252,367.6104 L147.5132,342.5664 C154.1372,339.2544 161.5652,337.5024 168.9812,337.5024 C176.3972,337.5024 183.8132,339.2544 190.4492,342.5664 L240.5372,367.6104 C243.8972,369.2904 247.5092,370.1544 251.2412,370.1544 C259.6292,370.1544 267.5372,365.6904 271.8452,358.4904 L324.9812,273.2544 L322.6052,265.5144 Z" id="Fill-199" fill="#8C8C8C" sketch:type="MSShapeGroup"></path>
                <path d="M54.9788,129.2532 C51.6668,129.2532 48.9788,126.5652 48.9788,123.2532 C48.9788,70.3212 100.1228,27.2532 162.9788,27.2532 C166.2908,27.2532 168.9788,29.9412 168.9788,33.2532 C168.9788,36.5652 166.2908,39.2532 162.9788,39.2532 C106.7348,39.2532 60.9788,76.9332 60.9788,123.2532 C60.9788,126.5652 58.2908,129.2532 54.9788,129.2532" id="Fill-200" fill="#E6E6E6" sketch:type="MSShapeGroup"></path>
                <path d="M313.064,123.252 L25.064,123.252 L25.064,129.252 L313.064,129.252 L313.064,123.252 Z" id="Fill-201" fill="#8C8C8C" sketch:type="MSShapeGroup"></path>
                <path d="M129.9788,126.2532 L129.9788,15.1692 C129.9788,6.9492 136.6748,0.2532 144.8948,0.2532 L193.0628,0.2532 C201.2828,0.2532 207.9788,6.9492 207.9788,15.1692 L207.9788,126.2532 L129.9788,126.2532 Z" id="Fill-202" fill="#BEBEBE" sketch:type="MSShapeGroup"></path>
                <path d="M168.9788,0.2532 L144.8948,0.2532 C136.6748,0.2532 129.9788,6.9492 129.9788,15.1692 L129.9788,126.2532 L168.9788,126.2532 L168.9788,0.2532 Z" id="Fill-203" fill="#CFCFCF" sketch:type="MSShapeGroup"></path>
                <path d="M204.9788,7.1688 L204.9788,123.2568 L132.9788,123.2568 L132.9788,7.2048 C130.9748,7.6368 128.9468,7.9968 126.9788,8.4888 L126.9788,123.2568 L126.9788,129.2568 L132.9788,129.2568 L204.9788,129.2568 L210.9788,129.2568 L210.9788,123.2568 L210.9788,8.4528 C209.0108,7.9608 206.9828,7.6008 204.9788,7.1688" id="Fill-204" fill="#8C8C8C" sketch:type="MSShapeGroup"></path>
                <path d="M226.844,79.116 L197.912,86.184 L226.844,93.252 L233.912,134.184 L240.98,93.252 L269.912,86.184 L240.98,79.116 L233.912,38.184 L226.844,79.116 Z" id="Clip-207" fill="#FFFFFF" sketch:type="MSShapeGroup"></path>
            </g>
        </g>
    </g>
</svg>