<?xml version="1.0" encoding="UTF-8" standalone="no"?>
<svg width="289px" height="372px" viewBox="0 0 289 372" version="1.1" xmlns="http://www.w3.org/2000/svg" xmlns:xlink="http://www.w3.org/1999/xlink" xmlns:sketch="http://www.bohemiancoding.com/sketch/ns">
    <!-- Generator: Sketch 3.4.4 (17249) - http://www.bohemiancoding.com/sketch -->
    <title>finn</title>
    <desc>Created with Sketch.</desc>
    <defs></defs>
    <g id="Page-1" stroke="none" stroke-width="1" fill="none" fill-rule="evenodd" sketch:type="MSPage">
        <g id="Minions" sketch:type="MSArtboardGroup" transform="translate(-3590.000000, -427.000000)">
            <g id="finn" sketch:type="MSLayerGroup" transform="translate(3590.000000, 427.000000)">
                <path d="M276.9564,132 C276.9564,204.9 217.8564,264 144.9564,264 C72.0564,264 12.9564,204.9 12.9564,132 C12.9564,59.1 72.0564,0 144.9564,0 C217.8564,0 276.9564,59.1 276.9564,132" id="Fill-251" fill="#323232" sketch:type="MSShapeGroup"></path>
                <path d="M276.9564,132 C276.9564,204.9 217.8564,264 144.9564,264 C72.0564,264 12.9564,204.9 12.9564,132 C12.9564,59.1 72.0564,0 144.9564,0 C217.8564,0 276.9564,59.1 276.9564,132" id="Fill-252" fill="#323232" sketch:type="MSShapeGroup"></path>
                <path d="M264.9564,148.8624 L24.9564,148.8624 C11.6964,148.8624 0.9564,159.6024 0.9564,172.8624 L0.9564,220.8624 C0.9564,234.1224 11.6964,244.8624 24.9564,244.8624 L264.9564,244.8624 C278.2164,244.8624 288.9564,234.1224 288.9564,220.8624 L288.9564,172.8624 C288.9564,159.6024 278.2164,148.8624 264.9564,148.8624" id="Fill-253" fill="#8C5A3C" sketch:type="MSShapeGroup"></path>
                <path d="M264.9564,140.2764 C264.9564,82.6884 211.2324,35.9964 144.9564,35.9964 C78.6804,35.9964 24.9564,82.6884 24.9564,140.2764 L24.9564,279.5484 C24.9564,300.1164 34.0884,319.6044 49.8804,332.7684 L86.9484,363.6564 C93.4164,369.0444 101.5644,371.9964 109.9884,371.9964 L179.9244,371.9964 C188.3484,371.9964 196.4964,369.0444 202.9764,363.6564 L240.0324,332.7684 C255.8244,319.6044 264.9564,300.1164 264.9564,279.5484 L264.9564,140.2764 Z" id="Fill-254" fill="#8C5A3C" sketch:type="MSShapeGroup"></path>
                <path d="M96.9564,196.8624 C90.3204,196.8624 84.9564,202.2264 84.9564,208.8624 C84.9564,215.4984 90.3204,220.8624 96.9564,220.8624 C103.5924,220.8624 108.9564,215.4984 108.9564,208.8624 C108.9564,202.2264 103.5924,196.8624 96.9564,196.8624" id="Fill-255" fill="#323232" sketch:type="MSShapeGroup"></path>
                <path d="M192.9564,196.8624 C186.3204,196.8624 180.9564,202.2264 180.9564,208.8624 C180.9564,215.4984 186.3204,220.8624 192.9564,220.8624 C199.5924,220.8624 204.9564,215.4984 204.9564,208.8624 C204.9564,202.2264 199.5924,196.8624 192.9564,196.8624" id="Fill-256" fill="#323232" sketch:type="MSShapeGroup"></path>
                <path d="M124.1616,261.8844 L128.7576,202.4724 C129.0096,199.1724 131.8896,196.7004 135.2016,196.9524 C138.5016,197.2044 140.9736,200.0964 140.7216,203.3964 L136.1256,262.8084 C135.8736,266.1084 132.9816,268.5804 129.6816,268.3284 C126.3816,268.0764 123.9096,265.1844 124.1616,261.8844" id="Fill-257" opacity="0.500757929" fill="#603813" sketch:type="MSShapeGroup"></path>
                <path d="M72.9564,36 L60.9564,60 C44.6484,76.284 12.9564,108.948 12.9564,132 L12.9564,156 L24.9564,215.136 L31.5324,169.56 C35.1444,144.564 40.9764,119.952 48.9564,96 L144.9564,96 L240.9564,96 C248.9364,119.952 254.7684,144.564 258.3804,169.56 L264.9564,215.136 L276.9564,156 L276.9564,146.916 C276.9564,118.908 260.7564,79.8 240.9564,60 L216.9564,36 C200.6724,19.728 89.2404,19.728 72.9564,36" id="Fill-258" fill="#323232" sketch:type="MSShapeGroup"></path>
            </g>
        </g>
    </g>
</svg>