<?xml version="1.0" encoding="UTF-8" standalone="no"?>
<svg width="313px" height="396px" viewBox="0 0 313 396" version="1.1" xmlns="http://www.w3.org/2000/svg" xmlns:xlink="http://www.w3.org/1999/xlink" xmlns:sketch="http://www.bohemiancoding.com/sketch/ns">
    <!-- Generator: Sketch 3.4.4 (17249) - http://www.bohemiancoding.com/sketch -->
    <title>general-leia</title>
    <desc>Created with Sketch.</desc>
    <defs></defs>
    <g id="Page-1" stroke="none" stroke-width="1" fill="none" fill-rule="evenodd" sketch:type="MSPage">
        <g id="Minions" sketch:type="MSArtboardGroup" transform="translate(-1213.000000, -412.000000)">
            <g id="general-leia" sketch:type="MSLayerGroup" transform="translate(1213.000000, 412.000000)">
                <path d="M216.4888,120 C216.4888,186.276 168.1408,240 108.4888,240 C48.8368,240 0.4888,186.276 0.4888,120 C0.4888,53.724 48.8368,0 108.4888,0 C168.1408,0 216.4888,53.724 216.4888,120" id="Fill-87" fill="#594628" sketch:type="MSShapeGroup"></path>
                <path d="M312.4888,120 C312.4888,186.276 264.1408,240 204.4888,240 C144.8368,240 96.4888,186.276 96.4888,120 C96.4888,53.724 144.8368,0 204.4888,0 C264.1408,0 312.4888,53.724 312.4888,120" id="Fill-88" fill="#594628" sketch:type="MSShapeGroup"></path>
                <path d="M278.0392,192 L34.9432,192 C22.5352,192 12.4912,202.056 12.4912,214.452 L12.4912,253.548 C12.4912,265.944 22.5352,276 34.9432,276 L278.0392,276 C290.4352,276 300.4912,265.944 300.4912,253.548 L300.4912,214.452 C300.4912,202.056 290.4352,192 278.0392,192" id="Fill-89" fill="#F0B496" sketch:type="MSShapeGroup"></path>
                <path d="M156.4888,120 C90.2128,120 36.4888,120.264 36.4888,179.904 L36.4888,297.24 C38.1688,316.896 47.1928,334.572 62.9128,345.036 L125.0848,386.412 C144.2968,399.192 168.6808,399.192 187.8928,386.412 L250.0648,345.036 C265.7848,334.572 274.8088,316.896 276.4888,297.24 L276.4888,179.904 C276.4888,120.264 222.7648,120 156.4888,120" id="Fill-90" fill="#F0B496" sketch:type="MSShapeGroup"></path>
                <path d="M204.4888,228 C197.8528,228 192.4888,233.364 192.4888,240 C192.4888,246.636 197.8528,252 204.4888,252 C211.1248,252 216.4888,246.636 216.4888,240 C216.4888,233.364 211.1248,228 204.4888,228" id="Fill-91" fill="#323232" sketch:type="MSShapeGroup"></path>
                <path d="M108.4888,228 C101.8528,228 96.4888,233.364 96.4888,240 C96.4888,246.636 101.8528,252 108.4888,252 C115.1248,252 120.4888,246.636 120.4888,240 C120.4888,233.364 115.1248,228 108.4888,228" id="Fill-92" fill="#323232" sketch:type="MSShapeGroup"></path>
                <path d="M144.4888,282 L144.4888,258 C144.4888,254.688 147.1768,252 150.4888,252 C153.8008,252 156.4888,254.688 156.4888,258 L156.4888,282 C156.4888,285.312 153.8008,288 150.4888,288 C147.1768,288 144.4888,285.312 144.4888,282" id="Fill-93" fill="#E99977" sketch:type="MSShapeGroup"></path>
                <path d="M36.4888,180 L156.4888,132 L276.4888,180 L276.4888,168 L192.4888,72 L96.4888,84 L36.4888,168 L36.4888,180 Z" id="Fill-94" fill="#503C1D" sketch:type="MSShapeGroup"></path>
                <path d="M36.4888,180 L36.4888,228 L60.4888,168 L36.4888,180 Z" id="Fill-95" fill="#503C1D" sketch:type="MSShapeGroup"></path>
                <path d="M276.4888,180 L276.4888,228 L252.4888,168 L276.4888,180 Z" id="Fill-96" fill="#503C1D" sketch:type="MSShapeGroup"></path>
                <path d="M179.8684,50.316 L156.4924,60 L133.1164,50.316 C78.0364,61.2 36.4924,109.728 36.4924,168 L156.4924,132 L276.4924,168 C276.4924,109.728 234.9484,61.2 179.8684,50.316" id="Fill-97" fill="#503C1D" sketch:type="MSShapeGroup"></path>
            </g>
        </g>
    </g>
</svg>