<?xml version="1.0" encoding="UTF-8" standalone="no"?>
<svg width="301px" height="408px" viewBox="0 0 301 408" version="1.1" xmlns="http://www.w3.org/2000/svg" xmlns:xlink="http://www.w3.org/1999/xlink" xmlns:sketch="http://www.bohemiancoding.com/sketch/ns">
    <!-- Generator: Sketch 3.4.4 (17249) - http://www.bohemiancoding.com/sketch -->
    <title>general-hux</title>
    <desc>Created with Sketch.</desc>
    <defs></defs>
    <g id="Page-1" stroke="none" stroke-width="1" fill="none" fill-rule="evenodd" sketch:type="MSPage">
        <g id="Minions" sketch:type="MSArtboardGroup" transform="translate(-1219.000000, -1942.000000)">
            <g id="general-hux" sketch:type="MSLayerGroup" transform="translate(1219.000000, 1942.000000)">
                <path d="M299.7868,54.5328 C303.2188,39.5088 291.8068,25.1928 276.3868,25.1928 L258.4948,25.1928 L234.4948,25.1928 L24.5908,25.1928 C9.1828,25.1928 -2.2412,39.5088 1.1908,54.5328 L18.4948,130.2528 L238.4908,130.2408 L282.4948,130.2528 L299.7868,54.5328 Z" id="Fill-110" fill="#231F20" sketch:type="MSShapeGroup"></path>
                <path d="M270.4888,276.0012 L270.4888,276.0012 C257.2888,276.0012 246.4888,265.2012 246.4888,252.0012 L246.4888,216.0012 C246.4888,202.8012 257.2888,192.0012 270.4888,192.0012 L270.4888,192.0012 C283.6888,192.0012 294.4888,202.8012 294.4888,216.0012 L294.4888,252.0012 C294.4888,265.2012 283.6888,276.0012 270.4888,276.0012" id="Fill-111" fill="#BEE6FA" sketch:type="MSShapeGroup"></path>
                <path d="M30.4888,276.0012 L30.4888,276.0012 C17.2888,276.0012 6.4888,265.2012 6.4888,252.0012 L6.4888,216.0012 C6.4888,202.8012 17.2888,192.0012 30.4888,192.0012 L30.4888,192.0012 C43.6888,192.0012 54.4888,202.8012 54.4888,216.0012 L54.4888,252.0012 C54.4888,265.2012 43.6888,276.0012 30.4888,276.0012" id="Fill-112" fill="#BEE6FA" sketch:type="MSShapeGroup"></path>
                <path d="M150.4888,60 C84.2128,60 30.4888,101.724 30.4888,168 L30.4888,309.6 C30.4888,325.26 38.1328,339.936 50.9608,348.924 L54.4888,351.396 L122.9608,399.324 C139.4848,410.892 161.4928,410.892 178.0168,399.324 L246.4888,351.396 L250.0168,348.924 C262.8448,339.936 270.4888,325.26 270.4888,309.6 L270.4888,228 L270.4888,168 C270.4888,101.724 216.7648,60 150.4888,60" id="Fill-113" fill="#F0B496" sketch:type="MSShapeGroup"></path>
                <path d="M270.4888,276.0012 L270.4888,276.0012 C257.2888,276.0012 246.4888,265.2012 246.4888,252.0012 L246.4888,216.0012 C246.4888,202.8012 257.2888,192.0012 270.4888,192.0012 L270.4888,192.0012 C283.6888,192.0012 294.4888,202.8012 294.4888,216.0012 L294.4888,252.0012 C294.4888,265.2012 283.6888,276.0012 270.4888,276.0012" id="Fill-114" fill="#F0B496" sketch:type="MSShapeGroup"></path>
                <path d="M30.4888,276.0012 L30.4888,276.0012 C17.2888,276.0012 6.4888,265.2012 6.4888,252.0012 L6.4888,216.0012 C6.4888,202.8012 17.2888,192.0012 30.4888,192.0012 L30.4888,192.0012 C43.6888,192.0012 54.4888,202.8012 54.4888,216.0012 L54.4888,252.0012 C54.4888,265.2012 43.6888,276.0012 30.4888,276.0012" id="Fill-115" fill="#F0B496" sketch:type="MSShapeGroup"></path>
                <path d="M102.4888,216.0012 C95.8528,216.0012 90.4888,221.3652 90.4888,228.0012 C90.4888,234.6372 95.8528,240.0012 102.4888,240.0012 C109.1248,240.0012 114.4888,234.6372 114.4888,228.0012 C114.4888,221.3652 109.1248,216.0012 102.4888,216.0012" id="Fill-116" fill="#323232" sketch:type="MSShapeGroup"></path>
                <path d="M198.4888,216.0012 C191.8528,216.0012 186.4888,221.3652 186.4888,228.0012 C186.4888,234.6372 191.8528,240.0012 198.4888,240.0012 C205.1248,240.0012 210.4888,234.6372 210.4888,228.0012 C210.4888,221.3652 205.1248,216.0012 198.4888,216.0012" id="Fill-117" fill="#323232" sketch:type="MSShapeGroup"></path>
                <path d="M138.4888,281.5896 L138.4888,221.9976 C138.4888,218.6856 141.1768,215.9976 144.4888,215.9976 C147.8008,215.9976 150.4888,218.6856 150.4888,221.9976 L150.4888,281.5896 C150.4888,284.9016 147.8008,287.5896 144.4888,287.5896 C141.1768,287.5896 138.4888,284.9016 138.4888,281.5896" id="Fill-118" fill="#E99977" sketch:type="MSShapeGroup"></path>
                <path d="M18.4888,132 L30.4888,216 L54.4888,156 L54.4888,132 L18.4888,132 Z" id="Fill-119" fill="#E67E22" sketch:type="MSShapeGroup"></path>
                <path d="M246.4888,132 L246.4888,156 L270.4888,216 L282.4888,132 L246.4888,132 Z" id="Fill-120" fill="#E67E22" sketch:type="MSShapeGroup"></path>
                <path d="M42.484,264 L30.484,264 L30.484,180 L42.484,180 L42.484,264 Z" id="Fill-121" fill="#E67E22" sketch:type="MSShapeGroup"></path>
                <path d="M270.484,264 L258.484,264 L258.484,180 L270.484,180 L270.484,264 Z" id="Fill-122" fill="#E67E22" sketch:type="MSShapeGroup"></path>
                <path d="M18.4888,132 L18.4888,79.152 C18.4888,54.984 32.9728,33.816 53.8648,27.456 L137.8648,1.884 C146.1328,-0.624 154.8448,-0.624 163.1128,1.884 L247.1128,27.456 C268.0048,33.816 282.4888,54.984 282.4888,79.152 L282.4888,132 L18.4888,132 Z" id="Fill-123" fill="#323232" sketch:type="MSShapeGroup"></path>
                <path d="M282.484,131.9976 L282.484,131.9976 L282.484,131.9856 C269.98,118.3056 215.644,107.9976 150.484,107.9976 C85.336,107.9976 31,118.3056 18.496,131.9856 L18.484,131.9856 C18.484,131.9856 18.484,131.9976 18.496,131.9976 L18.484,131.9976 L18.496,131.9976 C30.988,159.3816 85.324,179.9856 150.484,179.9856 C215.656,179.9856 269.98,159.3816 282.484,131.9976 L282.484,131.9976 L282.484,131.9976 Z" id="Fill-124" fill="#000000" sketch:type="MSShapeGroup"></path>
                <path d="M150.4888,17.0724 L147.4888,18.8004 L121.5088,33.8004 L118.5088,35.5404 L118.5088,38.9964 L118.5088,68.9964 L118.5088,72.4644 L121.5088,74.1924 L147.4888,89.1924 L150.4888,90.9324 L153.4888,89.1924 L179.4688,74.1924 L182.4688,72.4644 L182.4688,68.9964 L182.4688,38.9964 L182.4688,35.5404 L179.4688,33.8004 L153.4888,18.8004 L150.4888,17.0724 Z M150.4888,23.9964 L176.4688,38.9964 L176.4688,68.9964 L150.4888,83.9964 L124.5088,68.9964 L124.5088,38.9964 L150.4888,23.9964 Z" id="Fill-125" fill="#BEBEBE" sketch:type="MSShapeGroup"></path>
                <path d="M164.2588,57 L157.7308,57 L162.3628,61.632 C161.2468,63.348 159.8428,64.752 158.1148,65.868 L153.4948,61.236 L153.4948,67.764 C152.4988,67.992 151.5508,68.376 150.4948,68.376 C149.4268,68.376 148.4908,67.992 147.4948,67.764 L147.4948,61.236 L142.8628,65.868 C141.1348,64.752 139.7308,63.348 138.6148,61.632 L143.2468,57 L136.7188,57 C136.5028,56.004 136.1068,55.068 136.1068,54 C136.1068,52.932 136.5028,51.996 136.7188,51 L143.2468,51 L138.6148,46.368 C139.7308,44.652 141.1348,43.248 142.8628,42.132 L147.4948,46.764 L147.4948,40.236 C148.4908,40.008 149.4268,39.624 150.4948,39.624 C151.5508,39.624 152.4988,40.008 153.4948,40.236 L153.4948,46.764 L158.1148,42.132 C159.8428,43.248 161.2468,44.652 162.3628,46.368 L157.7308,51 L164.2588,51 C164.4868,51.996 164.8708,52.932 164.8708,54 C164.8708,55.068 164.4868,56.004 164.2588,57 M150.4948,33.624 C139.2388,33.624 130.1068,42.744 130.1068,54 C130.1068,65.256 139.2388,74.376 150.4948,74.376 C161.7508,74.376 170.8708,65.256 170.8708,54 C170.8708,42.744 161.7508,33.624 150.4948,33.624" id="Fill-126" fill="#BEBEBE" sketch:type="MSShapeGroup"></path>
            </g>
        </g>
    </g>
</svg>