<?xml version="1.0" encoding="UTF-8" standalone="no"?>
<svg width="313px" height="373px" viewBox="0 0 313 373" version="1.1" xmlns="http://www.w3.org/2000/svg" xmlns:xlink="http://www.w3.org/1999/xlink" xmlns:sketch="http://www.bohemiancoding.com/sketch/ns">
    <!-- Generator: Sketch 3.4.4 (17249) - http://www.bohemiancoding.com/sketch -->
    <title>han-solo</title>
    <desc>Created with Sketch.</desc>
    <defs></defs>
    <g id="Page-1" stroke="none" stroke-width="1" fill="none" fill-rule="evenodd" sketch:type="MSPage">
        <g id="Minions" sketch:type="MSArtboardGroup" transform="translate(-2790.000000, -446.000000)">
            <g id="han-solo" sketch:type="MSLayerGroup" transform="translate(2790.000000, 446.000000)">
                <path d="M36.4676,264.9212 L0.4676,264.9212 L36.4676,168.9212 L36.4676,264.9212 Z" id="Fill-127" fill="#8C8C8C" sketch:type="MSShapeGroup"></path>
                <path d="M276.4676,264.9212 L312.4676,264.9212 L276.4676,168.9212 L276.4676,264.9212 Z" id="Fill-128" fill="#8C8C8C" sketch:type="MSShapeGroup"></path>
                <path d="M276.4676,144.9212 L36.4676,144.9212 C23.2076,144.9212 12.4676,155.6612 12.4676,168.9212 L12.4676,216.9212 C12.4676,230.1812 23.2076,240.9212 36.4676,240.9212 L276.4676,240.9212 C289.7276,240.9212 300.4676,230.1812 300.4676,216.9212 L300.4676,168.9212 C300.4676,155.6612 289.7276,144.9212 276.4676,144.9212" id="Fill-129" fill="#F0B496" sketch:type="MSShapeGroup"></path>
                <path d="M276.4676,141.1976 C276.4676,83.6096 222.7436,36.9176 156.4676,36.9176 C90.1916,36.9176 36.4676,83.6096 36.4676,141.1976 L36.4676,296.0576 C36.4676,306.7496 41.2196,316.8776 49.4276,323.7176 L98.4596,364.5776 C104.9276,369.9656 113.0756,372.9176 121.4996,372.9176 L191.4356,372.9176 C199.8596,372.9176 208.0076,369.9656 214.4756,364.5776 L263.5076,323.7176 C271.7156,316.8776 276.4676,306.7496 276.4676,296.0576 L276.4676,141.1976 Z" id="Fill-130" fill="#F0B496" sketch:type="MSShapeGroup"></path>
                <path d="M108.4676,192.9212 C101.8316,192.9212 96.4676,198.2852 96.4676,204.9212 C96.4676,211.5572 101.8316,216.9212 108.4676,216.9212 C115.1036,216.9212 120.4676,211.5572 120.4676,204.9212 C120.4676,198.2852 115.1036,192.9212 108.4676,192.9212" id="Fill-131" fill="#323232" sketch:type="MSShapeGroup"></path>
                <path d="M204.4676,192.9212 C197.8316,192.9212 192.4676,198.2852 192.4676,204.9212 C192.4676,211.5572 197.8316,216.9212 204.4676,216.9212 C211.1036,216.9212 216.4676,211.5572 216.4676,204.9212 C216.4676,198.2852 211.1036,192.9212 204.4676,192.9212" id="Fill-132" fill="#323232" sketch:type="MSShapeGroup"></path>
                <path d="M144.4664,247.5092 L144.4664,198.9332 C144.4664,195.6212 147.1544,192.9332 150.4664,192.9332 C153.7784,192.9332 156.4664,195.6212 156.4664,198.9332 L156.4664,247.5092 C156.4664,250.8212 153.7784,253.5092 150.4664,253.5092 C147.1544,253.5092 144.4664,250.8212 144.4664,247.5092" id="Fill-133" fill="#E99977" sketch:type="MSShapeGroup"></path>
                <path d="M156.4676,36.9212 L108.4676,0.9212 L24.4676,72.9212 L24.4676,108.9212 L36.4676,252.9212 L48.4676,132.9212 L60.4676,108.9212 L84.4676,144.9212 L156.4676,96.9212 L228.4676,144.9212 L252.4676,108.9212 L264.4676,132.9212 L276.4676,252.9212 L288.4676,108.9212 L288.4676,72.9212 L204.4676,0.9212 L156.4676,36.9212 Z" id="Fill-134" fill="#8C8C8C" sketch:type="MSShapeGroup"></path>
                <path d="M36.4676,180.9212 L0.4676,180.9212 L24.4676,72.9212 L36.4676,180.9212 Z" id="Fill-135" fill="#8C8C8C" sketch:type="MSShapeGroup"></path>
                <path d="M276.4676,180.9212 L312.4676,180.9212 L288.4676,72.9212 L276.4676,180.9212 Z" id="Fill-136" fill="#8C8C8C" sketch:type="MSShapeGroup"></path>
            </g>
        </g>
    </g>
</svg>