<?xml version="1.0" encoding="UTF-8" standalone="no"?>
<svg width="408px" height="395px" viewBox="0 0 408 395" version="1.1" xmlns="http://www.w3.org/2000/svg" xmlns:xlink="http://www.w3.org/1999/xlink" xmlns:sketch="http://www.bohemiancoding.com/sketch/ns">
    <!-- Generator: Sketch 3.4.4 (17249) - http://www.bohemiancoding.com/sketch -->
    <title>kylo-ren</title>
    <desc>Created with Sketch.</desc>
    <defs></defs>
    <g id="Page-1" stroke="none" stroke-width="1" fill="none" fill-rule="evenodd" sketch:type="MSPage">
        <g id="Minions" sketch:type="MSArtboardGroup" transform="translate(-377.000000, -1940.000000)">
            <g id="kylo-ren" sketch:type="MSLayerGroup" transform="translate(377.000000, 1940.000000)">
                <path d="M328.668,371.708 L79.332,371.708 L79.332,292.376 L328.668,292.376 L328.668,371.708 Z" id="Fill-61" fill="#000000" sketch:type="MSShapeGroup"></path>
                <path d="M317.328,303.704 L90.66,303.704 L90.66,88.376 L317.328,88.376 L317.328,303.704 Z" id="Fill-63" fill="#BEBEBE" sketch:type="MSShapeGroup"></path>
                <path d="M204,303.704 L90.672,303.704 L90.672,88.376 L204,88.376 L204,303.704 Z" id="Fill-64" fill="#DFDFDF" sketch:type="MSShapeGroup"></path>
                <path d="M90.6672,224.3684 L124.6632,247.0364 L136.0032,281.0324" id="Stroke-65" stroke="#7C7C7C" stroke-width="12" sketch:type="MSShapeGroup"></path>
                <path d="M79.3332,247.0352 L113.3292,269.7032 L124.6692,303.6992" id="Stroke-66" stroke="#7C7C7C" stroke-width="12" sketch:type="MSShapeGroup"></path>
                <path d="M317.3328,224.3684 L283.3368,247.0364 L271.9968,281.0324" id="Stroke-67" stroke="#7C7C7C" stroke-width="12" sketch:type="MSShapeGroup"></path>
                <path d="M328.6668,247.0352 L294.6708,269.7032 L283.3308,303.6992" id="Stroke-68" stroke="#7C7C7C" stroke-width="12" sketch:type="MSShapeGroup"></path>
                <path d="M289.2432,170.2532 C265.9152,175.7372 236.2992,179.0372 203.9952,179.0372 C171.7032,179.0372 142.0872,175.7372 118.7592,170.2532 C108.9192,174.7052 101.9952,184.5812 101.9952,196.0412 C101.9952,211.6172 114.7512,224.3732 130.3272,224.3732 L277.6632,224.3732 C293.2512,224.3732 305.9952,211.6172 305.9952,196.0412 C305.9952,184.5812 299.0832,174.7052 289.2432,170.2532" id="Fill-69" fill="#000000" sketch:type="MSShapeGroup"></path>
                <path d="M204,156.3692 C135.504,156.3692 78.996,141.5852 69.54,122.3732 C68.628,124.2212 68.004,126.1052 68.004,128.0372 C68.004,149.9372 128.892,167.6972 204,167.6972 C279.108,167.6972 339.996,149.9372 339.996,128.0372 C339.996,126.1052 339.372,124.2212 338.46,122.3732 C329.004,141.5852 272.496,156.3692 204,156.3692" id="Fill-70" fill="#7C7C7C" sketch:type="MSShapeGroup"></path>
                <path d="M183.4356,66.2036 C185.8836,66.0956 188.3196,65.9636 190.8036,65.8916 C188.3196,65.9636 185.8836,66.0956 183.4356,66.2036" id="Fill-71" fill="#7C7C7C" sketch:type="MSShapeGroup"></path>
                <path d="M241.1436,67.2392 C291.8556,71.5472 328.6716,84.4592 328.6716,99.6992 C328.6716,118.4792 272.8476,133.7072 204.0036,133.7072 C135.1476,133.7072 79.3356,118.4792 79.3356,99.6992 C79.3356,84.4592 116.1396,71.5472 166.8516,67.2392 C109.8276,71.9552 67.9956,87.2192 67.9956,105.3752 C67.9956,127.2752 128.8836,145.0352 204.0036,145.0352 C279.1116,145.0352 339.9996,127.2752 339.9996,105.3752 C339.9996,87.2192 298.1796,71.9552 241.1436,67.2392" id="Fill-72" fill="#7C7C7C" sketch:type="MSShapeGroup"></path>
                <path d="M224.5644,66.2036 C222.1164,66.0956 219.6804,65.9636 217.1964,65.8916 C219.6804,65.9636 222.1164,66.0956 224.5644,66.2036" id="Fill-73" fill="#7C7C7C" sketch:type="MSShapeGroup"></path>
                <path d="M167.2992,67.2044 C170.9232,66.9044 174.6072,66.6404 178.3632,66.4244 C174.6072,66.6404 170.9352,66.9044 167.2992,67.2044" id="Fill-74" fill="#7C7C7C" sketch:type="MSShapeGroup"></path>
                <path d="M240.7008,67.2044 C237.0648,66.9044 233.3928,66.6404 229.6368,66.4244 C233.3928,66.6404 237.0768,66.9044 240.7008,67.2044" id="Fill-75" fill="#7C7C7C" sketch:type="MSShapeGroup"></path>
                <path d="M317.3328,88.3688 C317.3328,107.1488 266.5968,122.3648 204.0048,122.3648 C141.4128,122.3648 90.6648,107.1488 90.6648,88.3688 C90.6648,69.5888 141.4128,54.3728 204.0048,54.3728 C266.5968,54.3728 317.3328,69.5888 317.3328,88.3688" id="Fill-76" fill="#323232" sketch:type="MSShapeGroup"></path>
                <path d="M102,303.7028 L173.4,213.0308 L234.6,213.0308 L306,303.7028 L255,394.3748 L234.6,394.3748 L214.2,383.7068 L193.8,383.7068 L173.4,394.3748 L153,394.3748 L102,303.7028 Z" id="Fill-77" fill="#323232" sketch:type="MSShapeGroup"></path>
                <path d="M12.1908,371.702 L130.2828,371.702 C91.4148,314.894 93.4188,213.446 93.4188,212.294 C93.4188,149.906 142.9308,99.326 203.9988,99.326 C265.0668,99.326 314.5788,149.906 314.5788,212.294 C314.5788,213.446 316.5828,314.894 277.7148,371.702 L395.8068,371.702 C406.2828,371.702 411.6948,358.994 405.1668,350.366 C346.1628,272.342 351.4308,156.374 351.4308,156.374 C351.4308,73.706 282.3948,0.89 203.9988,0.89 C125.6148,0.89 56.5668,73.706 56.5668,156.374 C56.5668,156.374 61.8348,272.342 2.8428,350.366 C-3.6852,358.994 1.7148,371.702 12.1908,371.702" id="Fill-78" fill="#000000" sketch:type="MSShapeGroup"></path>
                <path d="M221.0004,235.7024 L187.0044,235.7024 C183.8844,235.7024 181.3284,233.1584 181.3284,230.0384 L181.3284,230.0384 C181.3284,226.9184 183.8844,224.3744 187.0044,224.3744 L221.0004,224.3744 C224.1204,224.3744 226.6644,226.9184 226.6644,230.0384 L226.6644,230.0384 C226.6644,233.1584 224.1204,235.7024 221.0004,235.7024" id="Fill-79" fill="#464646" sketch:type="MSShapeGroup"></path>
                <path d="M232.3332,258.3692 L175.6692,258.3692 C172.5492,258.3692 170.0052,255.8132 170.0052,252.7052 L170.0052,252.7052 C170.0052,249.5852 172.5492,247.0412 175.6692,247.0412 L232.3332,247.0412 C235.4532,247.0412 237.9972,249.5852 237.9972,252.7052 L237.9972,252.7052 C237.9972,255.8132 235.4532,258.3692 232.3332,258.3692" id="Fill-80" fill="#464646" sketch:type="MSShapeGroup"></path>
            </g>
        </g>
    </g>
</svg>