<?xml version="1.0" encoding="UTF-8" standalone="no"?>
<svg width="433px" height="408px" viewBox="0 0 433 408" version="1.1" xmlns="http://www.w3.org/2000/svg" xmlns:xlink="http://www.w3.org/1999/xlink" xmlns:sketch="http://www.bohemiancoding.com/sketch/ns">
    <!-- Generator: Sketch 3.4.4 (17249) - http://www.bohemiancoding.com/sketch -->
    <title>luke-skywalker</title>
    <desc>Created with Sketch.</desc>
    <defs></defs>
    <g id="Page-1" stroke="none" stroke-width="1" fill="none" fill-rule="evenodd" sketch:type="MSPage">
        <g id="Minions" sketch:type="MSArtboardGroup" transform="translate(-1153.000000, -1174.000000)">
            <g id="luke-skywalker" sketch:type="MSLayerGroup" transform="translate(1153.000000, 1174.000000)">
                <path d="M339.256,408 L99.256,408 L99.256,252 L339.256,252 L339.256,408 Z" id="Fill-98" fill="#323232" sketch:type="MSShapeGroup"></path>
                <path d="M216.4888,36 C150.2128,36 96.4888,82.692 96.4888,140.28 L96.4888,312 L180.4888,372 L252.4888,372 L336.4888,312 L336.4888,140.28 C336.4888,82.692 282.7648,36 216.4888,36" id="Fill-99" fill="#F0B496" sketch:type="MSShapeGroup"></path>
                <path d="M342.6856,180 L351.2536,108 L219.2536,20.148 L87.2536,108 L95.8336,180 L99.2536,204 L114.0256,167.076 L160.1416,151.776 L193.8256,88.152 L165.1336,168 L213.7936,153.024 L231.2536,94.38 L230.9296,88.236 L231.2536,88.152 L278.3776,151.776 L324.4936,167.076 L339.2536,204 L342.6856,180 Z" id="Fill-100" fill="#BE9664" sketch:type="MSShapeGroup"></path>
                <path d="M96.4888,240 L96.4888,240 C83.2888,240 72.4888,229.2 72.4888,216 L72.4888,180 C72.4888,166.8 83.2888,156 96.4888,156 L96.4888,156 C109.6888,156 120.4888,166.8 120.4888,180 L120.4888,216 C120.4888,229.2 109.6888,240 96.4888,240" id="Fill-101" fill="#F0B496" sketch:type="MSShapeGroup"></path>
                <path d="M336.4888,240 L336.4888,240 C323.2888,240 312.4888,229.2 312.4888,216 L312.4888,180 C312.4888,166.8 323.2888,156 336.4888,156 L336.4888,156 C349.6888,156 360.4888,166.8 360.4888,180 L360.4888,216 C360.4888,229.2 349.6888,240 336.4888,240" id="Fill-102" fill="#F0B496" sketch:type="MSShapeGroup"></path>
                <path d="M168.4888,180 C161.8528,180 156.4888,185.364 156.4888,192 C156.4888,198.636 161.8528,204 168.4888,204 C175.1248,204 180.4888,198.636 180.4888,192 C180.4888,185.364 175.1248,180 168.4888,180" id="Fill-103" fill="#2980B9" sketch:type="MSShapeGroup"></path>
                <path d="M264.4888,180 C257.8528,180 252.4888,185.364 252.4888,192 C252.4888,198.636 257.8528,204 264.4888,204 C271.1248,204 276.4888,198.636 276.4888,192 C276.4888,185.364 271.1248,180 264.4888,180" id="Fill-104" fill="#2980B9" sketch:type="MSShapeGroup"></path>
                <path d="M204.4876,234.588 L204.4876,186.012 C204.4876,182.7 207.1756,180.012 210.4876,180.012 C213.7996,180.012 216.4876,182.7 216.4876,186.012 L216.4876,234.588 C216.4876,237.9 213.7996,240.588 210.4876,240.588 C207.1756,240.588 204.4876,237.9 204.4876,234.588" id="Fill-105" fill="#E99977" sketch:type="MSShapeGroup"></path>
                <path d="M264.4888,324 L168.4888,324 L180.4888,276 L252.4888,276 L264.4888,324 Z M336.4888,132 L312.4888,312 L300.4888,312 L264.4888,264 L168.4888,264 L132.4888,312 L120.4888,312 L96.4888,132 L86.1448,297.42 C85.1128,313.956 92.6848,329.856 106.1608,339.48 L155.9728,375.06 C164.1088,380.88 173.8648,396 183.8728,396 L249.1048,396 C259.1128,396 268.8688,380.88 277.0048,375.06 L326.8168,339.48 C340.2928,329.856 347.8648,313.956 346.8328,297.42 L336.4888,132 Z" id="Fill-106" fill="#BE9664" sketch:type="MSShapeGroup"></path>
                <path d="M143.0332,382.5444 L156.4852,395.9964 L192.4852,395.9964 L192.4852,347.9964 L168.4852,347.9964 L132.4852,311.9964 L132.4852,357.0924 C132.4852,366.6324 136.2772,375.7884 143.0332,382.5444" id="Fill-107" fill="#ECECEC" sketch:type="MSShapeGroup"></path>
                <path d="M300.4888,312 L300.4888,357.084 C300.4888,366.636 296.6968,375.792 289.9408,382.548 L276.4888,396 L240.4888,396 L240.4888,348 L264.4888,348 L300.4888,312 Z" id="Fill-108" fill="#ECECEC" sketch:type="MSShapeGroup"></path>
                <path d="M13.3972,408 L138.4372,408 C97.2772,347.844 99.4132,240.444 99.4132,239.22 C99.4132,173.16 151.8292,119.604 216.4852,119.604 C281.1532,119.604 333.5692,173.16 333.5692,239.22 C333.5692,240.444 335.6932,347.844 294.5452,408 L419.5852,408 C430.6732,408 436.3972,394.548 429.4852,385.404 C367.0252,302.796 372.5932,164.616 372.5932,164.616 C372.5932,77.088 299.4892,0 216.4852,0 C133.4932,0 60.3772,77.088 60.3772,164.616 C60.3772,164.616 65.9572,302.796 3.4972,385.404 C-3.4148,394.548 2.3092,408 13.3972,408" id="Fill-109" fill="#8C5A3C" sketch:type="MSShapeGroup"></path>
            </g>
        </g>
    </g>
</svg>