<?xml version="1.0" encoding="UTF-8" standalone="no"?>
<svg width="361px" height="294px" viewBox="0 0 361 294" version="1.1" xmlns="http://www.w3.org/2000/svg" xmlns:xlink="http://www.w3.org/1999/xlink" xmlns:sketch="http://www.bohemiancoding.com/sketch/ns">
    <!-- Generator: Sketch 3.4.4 (17249) - http://www.bohemiancoding.com/sketch -->
    <title>maz-kanata</title>
    <desc>Created with Sketch.</desc>
    <defs></defs>
    <g id="Page-1" stroke="none" stroke-width="1" fill="none" fill-rule="evenodd" sketch:type="MSPage">
        <g id="Minions" sketch:type="MSArtboardGroup" transform="translate(-2766.000000, -2022.000000)">
            <g id="maz-kanata" sketch:type="MSLayerGroup" transform="translate(2766.000000, 2022.000000)">
                <path d="M336.2504,137.0788 C333.9704,61.4668 265.1864,0.7708 180.4664,0.7708 C95.7464,0.7708 26.9744,61.4668 24.6824,137.0788 L336.2504,137.0788 Z" id="Fill-137" fill="#323232" sketch:type="MSShapeGroup"></path>
                <path d="M24.686,197.0668 C26.966,230.3428 95.75,257.0668 180.47,257.0668 C265.19,257.0668 333.962,230.3428 336.254,197.0668 L24.686,197.0668 Z" id="Fill-138" fill="#323232" sketch:type="MSShapeGroup"></path>
                <path d="M336.464,197.08 L24.464,197.08 L24.464,137.08 L336.464,137.08 L336.464,197.08 Z" id="Fill-139" fill="#323232" sketch:type="MSShapeGroup"></path>
                <path d="M324.464,197.08 L36.464,197.08 L36.464,137.08 L324.464,137.08 L324.464,197.08 Z" id="Fill-140" fill="#323232" sketch:type="MSShapeGroup"></path>
                <path d="M313.0064,221.0788 C320.3744,204.4948 324.4664,186.2428 324.4664,167.0788 C324.4664,90.8668 260.0024,29.0788 180.4664,29.0788 C100.9424,29.0788 36.4664,90.8668 36.4664,167.0788 C36.4664,186.2428 40.5584,204.4948 47.9264,221.0788 L313.0064,221.0788 Z" id="Fill-141" fill="#D35400" sketch:type="MSShapeGroup"></path>
                <path d="M24.4676,197.0788 L24.4676,197.0788 C11.2076,197.0788 0.4676,186.3388 0.4676,173.0788 L0.4676,161.0788 C0.4676,147.8188 11.2076,137.0788 24.4676,137.0788 L24.4676,197.0788 Z" id="Fill-142" fill="#ECECEC" sketch:type="MSShapeGroup"></path>
                <path d="M336.4676,137.0788 L336.4676,137.0788 C349.7276,137.0788 360.4676,147.8188 360.4676,161.0788 L360.4676,173.0788 C360.4676,186.3388 349.7276,197.0788 336.4676,197.0788 L336.4676,137.0788 Z" id="Fill-143" fill="#ECECEC" sketch:type="MSShapeGroup"></path>
                <path d="M180.4676,29.0788 C100.1756,29.0788 56.9636,133.1068 39.8276,179.0308 C36.3356,188.4028 35.5916,198.5908 37.4636,208.1668 C39.4916,218.5228 45.5276,227.3428 53.4716,233.0788 L116.3516,273.9628 C135.5636,286.4548 157.7876,293.0788 180.4676,293.0788 C203.1476,293.0788 225.3716,286.4548 244.5836,273.9508 L307.7276,232.8868 C314.4236,228.0628 319.9556,221.1028 322.3916,212.6188 C325.4996,201.7948 325.1516,189.8668 321.1076,179.0308 C303.9716,133.1068 260.7596,29.0788 180.4676,29.0788" id="Fill-144" fill="#D35400" sketch:type="MSShapeGroup"></path>
                <path d="M210.4688,257.068 L150.4688,257.068 C147.1568,257.068 144.4688,259.756 144.4688,263.068 L144.4688,263.068 C144.4688,266.38 147.1568,269.068 150.4688,269.068 L210.4688,269.068 C213.7808,269.068 216.4688,266.38 216.4688,263.068 L216.4688,263.068 C216.4688,259.756 213.7808,257.068 210.4688,257.068" id="Fill-145" fill="#C0392B" sketch:type="MSShapeGroup"></path>
                <path d="M324.464,197.08 L36.464,197.08 L36.464,161.08 L324.464,161.08 L324.464,197.08 Z" id="Fill-146" fill="#D35400" sketch:type="MSShapeGroup"></path>
                <path d="M300.4676,173.0788 C300.4676,196.2748 281.6636,215.0788 258.4676,215.0788 C235.2716,215.0788 216.4676,196.2748 216.4676,173.0788 C216.4676,149.8828 235.2716,131.0788 258.4676,131.0788 C281.6636,131.0788 300.4676,149.8828 300.4676,173.0788" id="Fill-147" fill="#E67E22" sketch:type="MSShapeGroup"></path>
                <path d="M258.4676,119.0788 C228.6956,119.0788 204.4676,143.3068 204.4676,173.0788 C204.4676,202.8508 228.6956,227.0788 258.4676,227.0788 C288.2396,227.0788 312.4676,202.8508 312.4676,173.0788 C312.4676,143.3068 288.2396,119.0788 258.4676,119.0788 M258.4676,131.0788 C281.6636,131.0788 300.4676,149.8828 300.4676,173.0788 C300.4676,196.2748 281.6636,215.0788 258.4676,215.0788 C235.2716,215.0788 216.4676,196.2748 216.4676,173.0788 C216.4676,149.8828 235.2716,131.0788 258.4676,131.0788" id="Fill-148" fill="#ECECEC" sketch:type="MSShapeGroup"></path>
                <path d="M252.4676,173.0788 C252.4676,179.7028 247.0916,185.0788 240.4676,185.0788 C233.8436,185.0788 228.4676,179.7028 228.4676,173.0788 C228.4676,166.4548 233.8436,161.0788 240.4676,161.0788 C247.0916,161.0788 252.4676,166.4548 252.4676,173.0788" id="Fill-149" fill="#FFFFFF" sketch:type="MSShapeGroup"></path>
                <path d="M144.4676,173.0788 C144.4676,196.2748 125.6636,215.0788 102.4676,215.0788 C79.2716,215.0788 60.4676,196.2748 60.4676,173.0788 C60.4676,149.8828 79.2716,131.0788 102.4676,131.0788 C125.6636,131.0788 144.4676,149.8828 144.4676,173.0788" id="Fill-150" fill="#E67E22" sketch:type="MSShapeGroup"></path>
                <path d="M102.4676,119.0788 C72.6956,119.0788 48.4676,143.3068 48.4676,173.0788 C48.4676,202.8508 72.6956,227.0788 102.4676,227.0788 C132.2396,227.0788 156.4676,202.8508 156.4676,173.0788 C156.4676,143.3068 132.2396,119.0788 102.4676,119.0788 M102.4676,131.0788 C125.6636,131.0788 144.4676,149.8828 144.4676,173.0788 C144.4676,196.2748 125.6636,215.0788 102.4676,215.0788 C79.2716,215.0788 60.4676,196.2748 60.4676,173.0788 C60.4676,149.8828 79.2716,131.0788 102.4676,131.0788" id="Fill-151" fill="#ECECEC" sketch:type="MSShapeGroup"></path>
                <path d="M132.4676,173.0788 C132.4676,179.7028 127.0916,185.0788 120.4676,185.0788 C113.8436,185.0788 108.4676,179.7028 108.4676,173.0788 C108.4676,166.4548 113.8436,161.0788 120.4676,161.0788 C127.0916,161.0788 132.4676,166.4548 132.4676,173.0788" id="Fill-152" fill="#FFFFFF" sketch:type="MSShapeGroup"></path>
                <path d="M60.464,161.08 L24.464,161.08 L24.464,149.08 L60.464,149.08 L60.464,161.08 Z" id="Fill-153" fill="#ECECEC" sketch:type="MSShapeGroup"></path>
                <path d="M60.464,185.08 L24.464,185.08 L24.464,173.08 L60.464,173.08 L60.464,185.08 Z" id="Fill-154" fill="#ECECEC" sketch:type="MSShapeGroup"></path>
                <path d="M336.464,161.08 L300.464,161.08 L300.464,149.08 L336.464,149.08 L336.464,161.08 Z" id="Fill-155" fill="#ECECEC" sketch:type="MSShapeGroup"></path>
                <path d="M336.464,185.08 L300.464,185.08 L300.464,173.08 L336.464,173.08 L336.464,185.08 Z" id="Fill-156" fill="#ECECEC" sketch:type="MSShapeGroup"></path>
                <path d="M258.4676,113.0788 C225.3356,113.0788 198.4676,139.9468 198.4676,173.0788 C198.4676,206.2108 225.3356,233.0788 258.4676,233.0788 C291.5996,233.0788 318.4676,206.2108 318.4676,173.0788 C318.4676,139.9468 291.5996,113.0788 258.4676,113.0788 M258.4676,119.0788 C288.2396,119.0788 312.4676,143.3068 312.4676,173.0788 C312.4676,202.8508 288.2396,227.0788 258.4676,227.0788 C228.6956,227.0788 204.4676,202.8508 204.4676,173.0788 C204.4676,143.3068 228.6956,119.0788 258.4676,119.0788" id="Fill-157" fill="#8C8C8C" sketch:type="MSShapeGroup"></path>
                <path d="M102.4676,113.0788 C69.3356,113.0788 42.4676,139.9468 42.4676,173.0788 C42.4676,206.2108 69.3356,233.0788 102.4676,233.0788 C135.5996,233.0788 162.4676,206.2108 162.4676,173.0788 C162.4676,139.9468 135.5996,113.0788 102.4676,113.0788 M102.4676,119.0788 C132.2396,119.0788 156.4676,143.3068 156.4676,173.0788 C156.4676,202.8508 132.2396,227.0788 102.4676,227.0788 C72.6956,227.0788 48.4676,202.8508 48.4676,173.0788 C48.4676,143.3068 72.6956,119.0788 102.4676,119.0788" id="Fill-158" fill="#8C8C8C" sketch:type="MSShapeGroup"></path>
                <path d="M184.1984,80.8816 C201.4064,80.8816 216.9584,84.0256 228.4664,89.0776 C221.2064,78.5416 204.1304,71.1256 184.1984,71.1256 C164.2664,71.1256 147.1904,78.5416 139.9304,89.0776 C151.4384,84.0256 166.9904,80.8816 184.1984,80.8816" id="Fill-159" fill="#B11929" sketch:type="MSShapeGroup"></path>
                <path d="M184.1984,61.3804 C201.4064,61.3804 216.9584,64.5244 228.4664,69.5764 C221.2064,59.0404 204.1304,51.6244 184.1984,51.6244 C164.2664,51.6244 147.1904,59.0404 139.9304,69.5764 C151.4384,64.5244 166.9904,61.3804 184.1984,61.3804" id="Fill-160" fill="#B11929" sketch:type="MSShapeGroup"></path>
            </g>
        </g>
    </g>
</svg>