<?xml version="1.0" encoding="UTF-8" standalone="no"?>
<svg width="361px" height="404px" viewBox="0 0 361 404" version="1.1" xmlns="http://www.w3.org/2000/svg" xmlns:xlink="http://www.w3.org/1999/xlink" xmlns:sketch="http://www.bohemiancoding.com/sketch/ns">
    <!-- Generator: Sketch 3.4.4 (17249) - http://www.bohemiancoding.com/sketch -->
    <title>poe-dameron</title>
    <desc>Created with Sketch.</desc>
    <defs></defs>
    <g id="Page-1" stroke="none" stroke-width="1" fill="none" fill-rule="evenodd" sketch:type="MSPage">
        <g id="Minions" sketch:type="MSArtboardGroup" transform="translate(-1977.000000, -416.000000)">
            <g id="poe-dameron" sketch:type="MSLayerGroup" transform="translate(1977.000000, 416.000000)">
                <path d="M300.9788,264.8504 L300.9788,264.8504 C287.7788,264.8504 276.9788,254.0504 276.9788,240.8504 L276.9788,204.8504 C276.9788,191.6504 287.7788,180.8504 300.9788,180.8504 L300.9788,180.8504 C314.1788,180.8504 324.9788,191.6504 324.9788,204.8504 L324.9788,240.8504 C324.9788,254.0504 314.1788,264.8504 300.9788,264.8504" id="Fill-177" fill="#F0B496" sketch:type="MSShapeGroup"></path>
                <path d="M60.9788,264.8504 L60.9788,264.8504 C47.7788,264.8504 36.9788,254.0504 36.9788,240.8504 L36.9788,204.8504 C36.9788,191.6504 47.7788,180.8504 60.9788,180.8504 L60.9788,180.8504 C74.1788,180.8504 84.9788,191.6504 84.9788,204.8504 L84.9788,240.8504 C84.9788,254.0504 74.1788,264.8504 60.9788,264.8504" id="Fill-178" fill="#F0B496" sketch:type="MSShapeGroup"></path>
                <path d="M180.9788,60.8504 C114.7028,60.8504 60.9788,109.2104 60.9788,168.8504 L60.9788,192.8504 L60.9788,310.4504 C60.9788,326.1104 68.6228,340.7864 81.4508,349.7744 L84.9788,352.2464 L139.6868,390.5384 C164.4788,407.8904 197.4788,407.8904 222.2708,390.5384 L276.9788,352.2464 L280.5068,349.7744 C293.3348,340.7864 300.9788,326.1104 300.9788,310.4504 L300.9788,228.8504 L300.9788,168.8504 C300.9788,109.2104 247.2548,60.8504 180.9788,60.8504" id="Fill-179" fill="#F0B496" sketch:type="MSShapeGroup"></path>
                <path d="M168.9788,294.4388 L168.9788,234.8468 C168.9788,231.5348 171.6668,228.8468 174.9788,228.8468 C178.2908,228.8468 180.9788,231.5348 180.9788,234.8468 L180.9788,294.4388 C180.9788,297.7508 178.2908,300.4388 174.9788,300.4388 C171.6668,300.4388 168.9788,297.7508 168.9788,294.4388" id="Fill-180" fill="#E99977" sketch:type="MSShapeGroup"></path>
                <path d="M220.4828,377.7188 L213.4748,367.9748 L329.9468,283.9748 L336.9548,293.7188 L220.4828,377.7188 Z" id="Fill-181" fill="#505050" sketch:type="MSShapeGroup"></path>
                <path d="M223.9976,382.5812 L209.9576,363.1172 L245.9576,337.1612 L259.9976,356.6252 L223.9976,382.5812 Z" id="Fill-182" fill="#8C8C8C" sketch:type="MSShapeGroup"></path>
                <path d="M359.654,248.8772 L348.974,216.8492 L348.974,144.8492 C337.166,63.4652 266.558,0.8492 180.974,0.8492 C95.402,0.8492 24.782,63.4652 12.974,144.8492 L12.974,216.8492 L2.306,248.8772 C1.418,251.5052 0.974,254.2652 0.974,257.0372 L0.974,306.9692 C0.974,317.7212 7.646,327.3452 17.714,331.1252 L62.126,347.7812 C78.986,354.1052 96.974,341.6372 96.974,323.6252 L96.974,323.5412 C96.974,316.6892 94.262,310.1252 89.414,305.2892 L60.974,276.8492 L60.974,180.8492 L300.974,180.8492 L300.974,276.8492 L272.534,305.2892 C267.698,310.1252 264.974,316.6892 264.974,323.5412 L264.974,323.6252 C264.974,341.6372 282.974,354.1052 299.834,347.7812 L344.234,331.1252 C354.314,327.3452 360.974,317.7212 360.974,306.9692 L360.974,257.0372 C360.974,254.2652 360.53,251.5052 359.654,248.8772" id="Fill-183" fill="#323232" sketch:type="MSShapeGroup"></path>
                <path d="M132.9788,7.7324 L132.9788,180.8444 L180.9788,180.8444 L180.9788,0.8444 C164.2868,0.8444 148.2068,3.2924 132.9788,7.7324" id="Fill-184" fill="#C0392B" sketch:type="MSShapeGroup"></path>
                <path d="M34.2068,84.7124 L108.9788,180.8444 L108.9788,16.7804 C77.5868,31.3604 51.5108,55.1804 34.2068,84.7124" id="Fill-185" fill="#C0392B" sketch:type="MSShapeGroup"></path>
                <path d="M300.9788,114.8492 C300.9788,138.0452 282.1748,156.8492 258.9788,156.8492 C235.7828,156.8492 216.9788,138.0452 216.9788,114.8492 C216.9788,91.6532 235.7828,72.8492 258.9788,72.8492 C282.1748,72.8492 300.9788,91.6532 300.9788,114.8492" id="Fill-186" fill="#BEBEBE" sketch:type="MSShapeGroup"></path>
                <path d="M300.9788,50.2064 C278.3708,27.7904 249.4268,11.7344 216.9788,4.7864 L216.9788,114.8504 L300.9788,114.8504 L300.9788,50.2064 Z" id="Fill-187" fill="#BEBEBE" sketch:type="MSShapeGroup"></path>
                <path d="M299.8364,347.7776 L336.9764,333.8456 L336.9764,276.8456 L267.5804,334.6856 C273.0884,346.2176 286.7564,352.6856 299.8364,347.7776" id="Fill-188" fill="#C0392B" sketch:type="MSShapeGroup"></path>
                <path d="M24.9788,312.8492 L24.9788,333.8492 L62.1188,347.7812 C72.6428,351.7292 83.6108,348.3452 90.3668,340.8692 L24.9788,312.8492 Z" id="Fill-189" fill="#C0392B" sketch:type="MSShapeGroup"></path>
                <path d="M12.9788,300.8492 L12.9788,216.8492 L2.2988,248.8772 C1.4228,251.5052 0.9788,254.2652 0.9788,257.0372 L0.9788,300.8492 L12.9788,300.8492 Z" id="Fill-190" fill="#C0392B" sketch:type="MSShapeGroup"></path>
                <path d="M348.9788,144.8492 C346.8428,130.1012 342.7148,116.0132 336.9788,102.7532 L336.9788,180.8492 L348.9788,180.8492 L348.9788,144.8492 Z" id="Fill-191" fill="#BEBEBE" sketch:type="MSShapeGroup"></path>
                <path d="M12.9788,144.8492 C15.1148,130.1012 19.2428,116.0132 24.9788,102.7532 L24.9788,180.8492 L12.9788,180.8492 L12.9788,144.8492 Z" id="Fill-192" fill="#C0392B" sketch:type="MSShapeGroup"></path>
                <path d="M228.9932,113.4896 C229.3652,103.7096 234.3212,94.6856 243.3812,88.7216 C243.3812,88.7216 243.6452,88.6496 243.5372,88.8416 C242.8172,89.5136 229.9172,104.7656 241.7972,116.8016 C241.7972,116.8016 248.0372,122.8016 252.8732,117.1016 C252.8732,117.1016 257.6492,110.9216 252.8132,101.5496 C252.8132,101.5496 251.5892,98.4896 247.1852,96.5816 L258.8732,83.5976 L270.5132,96.5816 C270.5132,96.5816 267.1652,97.6976 264.9092,101.5016 C262.9772,105.0416 261.4892,112.6016 265.0052,117.2336 C265.0052,117.2336 268.9292,122.8016 275.8292,116.9096 C275.8292,116.9096 288.5252,105.5336 274.5212,89.0816 C274.5212,89.0816 273.7652,88.4096 274.6172,88.7816 C280.8092,93.2816 288.2132,99.2216 288.9812,114.0416 C288.6812,132.0176 276.6452,144.8456 259.0652,144.8456 C241.8572,144.8456 228.4772,130.4936 228.9932,113.4896" id="Fill-193" fill="#921816" sketch:type="MSShapeGroup"></path>
                <path d="M60.9788,180.8492 L60.9788,276.8492 L103.1588,276.8492 C122.2508,276.8492 140.5628,269.2652 154.0628,255.7652 L164.0108,245.8172 C173.3828,236.4452 188.5748,236.4452 197.9468,245.8172 L207.8948,255.7652 C221.3948,269.2652 239.7068,276.8492 258.7988,276.8492 L300.9788,276.8492 L300.9788,180.8492 L60.9788,180.8492 Z" id="Fill-276" fill="#F39C12" sketch:type="MSShapeGroup"></path>
                <path d="M132.9788,228.8504 C126.3428,228.8504 120.9788,234.2144 120.9788,240.8504 C120.9788,247.4864 126.3428,252.8504 132.9788,252.8504 C139.6148,252.8504 144.9788,247.4864 144.9788,240.8504 C144.9788,234.2144 139.6148,228.8504 132.9788,228.8504" id="Fill-277" fill="#AB6432" sketch:type="MSShapeGroup"></path>
                <path d="M228.9788,228.8504 C222.3428,228.8504 216.9788,234.2144 216.9788,240.8504 C216.9788,247.4864 222.3428,252.8504 228.9788,252.8504 C235.6148,252.8504 240.9788,247.4864 240.9788,240.8504 C240.9788,234.2144 235.6148,228.8504 228.9788,228.8504" id="Fill-278" fill="#AB6432" sketch:type="MSShapeGroup"></path>
            </g>
        </g>
    </g>
</svg>