<?xml version="1.0" encoding="UTF-8" standalone="no"?>
<svg width="313px" height="240px" viewBox="0 0 313 240" version="1.1" xmlns="http://www.w3.org/2000/svg" xmlns:xlink="http://www.w3.org/1999/xlink" xmlns:sketch="http://www.bohemiancoding.com/sketch/ns">
    <!-- Generator: Sketch 3.4.4 (17249) - http://www.bohemiancoding.com/sketch -->
    <title>r2d2</title>
    <desc>Created with Sketch.</desc>
    <defs></defs>
    <g id="Page-1" stroke="none" stroke-width="1" fill="none" fill-rule="evenodd" sketch:type="MSPage">
        <g id="Minions" sketch:type="MSArtboardGroup" transform="translate(-3578.000000, -1261.000000)">
            <g id="r2d2" sketch:type="MSLayerGroup" transform="translate(3578.000000, 1260.000000)">
                <path d="M149.4156,1.1776 C65.5116,5.1256 0.9516,77.4016 0.9516,161.4016 L0.9516,216.9976 C0.9516,230.2576 11.7036,240.9976 24.9516,240.9976 L288.9516,240.9976 C302.2116,240.9976 312.9516,230.2576 312.9516,216.9976 L312.9516,156.9976 C312.9516,68.3416 238.9956,-3.0464 149.4156,1.1776" id="Fill-259" fill="#BEBEBE" sketch:type="MSShapeGroup"></path>
                <path d="M162.9564,1.312 L162.9564,49 L269.3604,49 C242.2764,20.812 204.7284,2.908 162.9564,1.312" id="Fill-260" fill="#2980B9" sketch:type="MSShapeGroup"></path>
                <path d="M150.9564,1.312 C109.1844,2.908 71.6364,20.812 44.5524,49 L150.9564,49 L150.9564,1.312 Z" id="Fill-261" fill="#2980B9" sketch:type="MSShapeGroup"></path>
                <path d="M215.1204,145 L146.7924,145 C139.4844,145 133.8804,138.532 134.9124,131.308 L143.4804,71.308 C144.3324,65.392 149.3964,61 155.3604,61 L206.5524,61 C212.5164,61 217.5804,65.392 218.4324,71.308 L227.0004,131.308 C228.0324,138.532 222.4284,145 215.1204,145" id="Fill-262" fill="#2980B9" sketch:type="MSShapeGroup"></path>
                <path d="M210.9564,103 C210.9564,119.572 197.5284,133 180.9564,133 C164.3844,133 150.9564,119.572 150.9564,103 C150.9564,86.428 164.3844,73 180.9564,73 C197.5284,73 210.9564,86.428 210.9564,103" id="Fill-263" fill="#323232" sketch:type="MSShapeGroup"></path>
                <path d="M186.9564,97 C186.9564,103.624 181.5804,109 174.9564,109 C168.3324,109 162.9564,103.624 162.9564,97 C162.9564,90.376 168.3324,85 174.9564,85 C181.5804,85 186.9564,90.376 186.9564,97" id="Fill-264" fill="#FFFFFF" sketch:type="MSShapeGroup"></path>
                <path d="M84.96,169 L120.96,169 L120.96,145 L84.96,145 L84.96,169 Z" id="Fill-265" fill="#505050" sketch:type="MSShapeGroup"></path>
                <path d="M84.96,193 L120.96,193 L120.96,169 L84.96,169 L84.96,193 Z" id="Fill-266" fill="#505050" sketch:type="MSShapeGroup"></path>
                <path d="M228.96,193 L168.96,193 L168.96,157 L228.96,157 L228.96,193 Z" id="Fill-267" fill="#2980B9" sketch:type="MSShapeGroup"></path>
                <path d="M156.96,193 L132.96,193 L132.96,157 L156.96,157 L156.96,193 Z" id="Fill-268" fill="#2980B9" sketch:type="MSShapeGroup"></path>
                <path d="M0.9564,217 C0.9564,220.096 1.5924,223.036 2.6604,225.748 L311.2524,225.748 C312.3204,223.036 312.9564,220.096 312.9564,217 L312.9564,206.248 L0.9564,206.248 L0.9564,217 Z" id="Fill-269" fill="#2980B9" sketch:type="MSShapeGroup"></path>
                <path d="M72.9564,145 L1.8204,145 C1.2684,150.412 0.9564,155.872 0.9564,161.404 L0.9564,193 L72.9564,193 L72.9564,145 Z" id="Fill-270" fill="#2980B9" sketch:type="MSShapeGroup"></path>
                <path d="M300.9564,145 L300.9564,193 L312.9564,193 L312.9564,157 C312.9564,152.944 312.6324,148.972 312.3324,145 L300.9564,145 Z" id="Fill-271" fill="#2980B9" sketch:type="MSShapeGroup"></path>
                <path d="M288.9564,169 C288.9564,182.26 278.2164,193 264.9564,193 C251.6964,193 240.9564,182.26 240.9564,169 C240.9564,155.74 251.6964,145 264.9564,145 C278.2164,145 288.9564,155.74 288.9564,169" id="Fill-272" fill="#8C8C8C" sketch:type="MSShapeGroup"></path>
                <path d="M279.9564,169 C279.9564,177.28 273.2364,184 264.9564,184 C256.6764,184 249.9564,177.28 249.9564,169 C249.9564,160.72 256.6764,154 264.9564,154 C273.2364,154 279.9564,160.72 279.9564,169" id="Fill-273" fill="#FFFFFF" sketch:type="MSShapeGroup"></path>
                <path d="M216.9564,175 C216.9564,181.624 211.5804,187 204.9564,187 C198.3324,187 192.9564,181.624 192.9564,175 C192.9564,168.376 198.3324,163 204.9564,163 C211.5804,163 216.9564,168.376 216.9564,175" id="Fill-274" fill="#C0392B" sketch:type="MSShapeGroup"></path>
                <path d="M30.84,127 C30.276,127 29.7,126.916 29.124,126.748 C25.956,125.8 24.144,122.464 25.092,119.284 C30.564,100.936 39.528,84.088 51.732,69.196 C53.844,66.628 57.636,66.268 60.18,68.356 C62.736,70.468 63.108,74.248 61.02,76.804 C49.812,90.46 41.592,105.904 36.588,122.716 C35.808,125.32 33.432,127 30.84,127" id="Fill-275" opacity="0.571012127" fill="#E6E6E6" sketch:type="MSShapeGroup"></path>
            </g>
        </g>
    </g>
</svg>