<?xml version="1.0" encoding="UTF-8" standalone="no"?>
<svg width="288px" height="349px" viewBox="0 0 288 349" version="1.1" xmlns="http://www.w3.org/2000/svg" xmlns:xlink="http://www.w3.org/1999/xlink" xmlns:sketch="http://www.bohemiancoding.com/sketch/ns">
    <!-- Generator: Sketch 3.4.4 (17249) - http://www.bohemiancoding.com/sketch -->
    <title>rey</title>
    <desc>Created with Sketch.</desc>
    <defs></defs>
    <g id="Page-1" stroke="none" stroke-width="1" fill="none" fill-rule="evenodd" sketch:type="MSPage">
        <g id="Minions" sketch:type="MSArtboardGroup" transform="translate(-437.000000, -427.000000)">
            <g id="rey" sketch:type="MSLayerGroup" transform="translate(437.000000, 427.000000)">
                <path d="M254.5056,144.6312 L33.4896,144.6312 C21.6216,144.6312 11.9976,154.2552 11.9976,166.1232 L11.9976,207.1392 C11.9976,219.0072 21.6216,228.6312 33.4896,228.6312 L254.5056,228.6312 C266.3736,228.6312 275.9976,219.0072 275.9976,207.1392 L275.9976,166.1232 C275.9976,154.2552 266.3736,144.6312 254.5056,144.6312" id="Fill-81" fill="#F0B496" sketch:type="MSShapeGroup"></path>
                <path d="M144,36.6312 C84.348,36.6312 36,72.8952 36,132.5352 L36,249.8712 C37.512,269.5272 45.636,287.2032 59.784,297.6672 L115.74,339.0432 C133.032,351.8232 154.968,351.8232 172.26,339.0432 L228.216,297.6672 C242.364,287.2032 250.488,269.5272 252,249.8712 L252,132.5352 C252,72.8952 203.652,36.6312 144,36.6312" id="Fill-82" fill="#F0B496" sketch:type="MSShapeGroup"></path>
                <path d="M192,192.6312 C185.364,192.6312 180,197.9952 180,204.6312 C180,211.2672 185.364,216.6312 192,216.6312 C198.636,216.6312 204,211.2672 204,204.6312 C204,197.9952 198.636,192.6312 192,192.6312" id="Fill-83" fill="#323232" sketch:type="MSShapeGroup"></path>
                <path d="M96,192.6312 C89.364,192.6312 84,197.9952 84,204.6312 C84,211.2672 89.364,216.6312 96,216.6312 C102.636,216.6312 108,211.2672 108,204.6312 C108,197.9952 102.636,192.6312 96,192.6312" id="Fill-84" fill="#323232" sketch:type="MSShapeGroup"></path>
                <path d="M132,246.6312 L132,222.6312 C132,219.3192 134.688,216.6312 138,216.6312 C141.312,216.6312 144,219.3192 144,222.6312 L144,246.6312 C144,249.9432 141.312,252.6312 138,252.6312 C134.688,252.6312 132,249.9432 132,246.6312" id="Fill-85" fill="#E99977" sketch:type="MSShapeGroup"></path>
                <path d="M288,324.6312 L264,300.6312 L264,120.6312 C264,54.3552 210.276,0.6312 144,0.6312 C77.724,0.6312 24,54.3552 24,120.6312 L24,300.6312 L0,324.6312 L36,312.6312 L36,180.6312 L48,135.6312 L46.332,108.7032 L144,72.6312 L241.68,108.6312 L240,135.6312 L252,180.6312 L252,312.6312 L288,324.6312 Z" id="Fill-86" fill="#503C1D" sketch:type="MSShapeGroup"></path>
            </g>
        </g>
    </g>
</svg>