<?xml version="1.0" encoding="UTF-8" standalone="no"?>
<!DOCTYPE svg PUBLIC "-//W3C//DTD SVG 1.1//EN" "http://www.w3.org/Graphics/SVG/1.1/DTD/svg11.dtd">
<svg version="1.1" xmlns="http://www.w3.org/2000/svg" xmlns:xlink="http://www.w3.org/1999/xlink" preserveAspectRatio="xMidYMid meet" viewBox="0 0 640 640" width="48" height="48"><defs>
  <path
    d="M327.4 0.17L331.07 0.28L334.72 0.43L338.37 0.61L342 0.84L345.62 1.12L349.23 1.43L352.83 1.78L356.42 2.18L359.98 2.62L363.55 3.09L367.1 3.6L370.62 4.16L374.15 4.75L377.66 5.38L381.15 6.04L384.64 6.75L388.11 7.49L391.56 8.27L395 9.1L398.43 9.95L401.83 10.85L405.23 11.77L408.61 12.74L411.98 13.74L415.33 14.78L418.66 15.85L421.99 16.96L425.29 18.09L428.58 19.27L431.84 20.48L435.1 21.72L438.34 22.99L441.56 24.31L444.76 25.65L447.95 27.02L451.13 28.43L454.28 29.87L457.41 31.34L457.41 68.77L434.52 68.77L434.52 91.67L480.31 91.67L480.31 114.56L457.41 114.56L457.41 137.46L503.2 137.46L503.2 160.36L526.1 160.36L526.1 183.25L457.41 183.25L457.41 206.14L549 206.14L549 229.04L503.2 229.04L503.2 251.94L633.02 251.94L633.22 252.87L633.42 253.84L633.62 254.82L633.82 255.84L634.01 256.88L634.2 257.95L634.4 259.03L634.59 260.15L634.79 261.29L634.97 262.46L635.16 263.64L635.35 264.86L635.53 266.11L635.71 267.37L635.89 268.67L636.07 269.98L636.25 271.32L636.43 272.69L636.61 274.08L636.78 275.5L636.96 276.95L637.13 278.41L637.3 279.91L637.47 281.43L637.64 282.98L637.81 284.54L637.97 286.14L638.13 287.76L638.3 289.41L638.46 291.07L638.62 292.77L638.77 294.49L638.93 296.24L639.1 298.02L639.25 299.81L639.4 301.63L639.55 303.48L639.7 305.35L639.85 307.25L640 309.18L0.07 309.18L0.78 296.37L1.98 283.69L3.66 271.17L5.83 258.8L8.46 246.6L11.55 234.58L15.08 222.74L19.06 211.11L23.46 199.67L28.27 188.45L33.51 177.46L39.13 166.7L45.15 156.19L51.55 145.93L58.31 135.93L65.45 126.2L72.93 116.77L80.76 107.63L88.91 98.77L97.39 90.24L106.18 82.03L115.28 74.16L124.67 66.62L134.34 59.44L144.3 52.61L154.51 46.15L164.99 40.09L175.7 34.4L186.66 29.11L197.83 24.23L209.24 19.78L220.84 15.75L232.65 12.15L244.65 9.01L256.81 6.33L269.16 4.1L281.66 2.36L294.32 1.1L307.11 0.34L320.03 0.09L323.72 0.11L327.4 0.17ZM198.05 69.07L194.35 69.44L190.7 69.97L187.09 70.63L183.55 71.43L180.05 72.37L176.6 73.44L173.23 74.64L169.9 75.97L166.65 77.42L163.46 79L160.35 80.69L157.31 82.5L154.35 84.42L151.47 86.44L148.66 88.58L145.95 90.82L143.33 93.16L140.79 95.6L138.35 98.13L136.02 100.75L133.78 103.47L131.64 106.27L129.61 109.15L127.69 112.12L125.88 115.16L124.2 118.27L122.62 121.46L121.17 124.71L119.85 128.03L118.64 131.41L117.57 134.85L116.64 138.35L115.84 141.9L115.17 145.5L114.65 149.15L114.28 152.84L114.05 156.58L113.98 160.36L114.05 164.13L114.28 167.86L114.65 171.56L115.17 175.21L115.84 178.81L116.64 182.36L117.57 185.86L118.64 189.3L119.85 192.69L121.17 196L122.62 199.26L124.2 202.44L125.88 205.56L127.69 208.59L129.61 211.56L131.64 214.44L133.78 217.24L136.02 219.96L138.35 222.58L140.79 225.11L143.33 227.55L145.95 229.89L148.66 232.14L151.47 234.27L154.35 236.29L157.31 238.21L160.35 240.02L163.46 241.71L166.65 243.29L169.9 244.73L173.23 246.07L176.6 247.27L180.05 248.34L183.55 249.28L187.09 250.08L190.7 250.73L194.35 251.26L198.05 251.63L201.78 251.86L205.56 251.94L209.33 251.86L213.07 251.63L216.76 251.26L220.41 250.73L224.01 250.08L227.57 249.28L231.06 248.34L234.5 247.27L237.88 246.07L241.2 244.73L244.46 243.29L247.64 241.71L250.76 240.02L253.8 238.21L256.76 236.29L259.64 234.27L262.44 232.14L265.15 229.89L267.78 227.55L270.32 225.11L272.75 222.58L275.09 219.96L277.33 217.24L279.47 214.44L281.5 211.56L283.42 208.59L285.23 205.56L286.92 202.44L288.49 199.26L289.94 196L291.27 192.69L292.47 189.3L293.54 185.86L294.48 182.36L295.28 178.81L295.94 175.21L296.46 171.56L296.83 167.86L297.07 164.13L297.15 160.36L297.07 156.58L296.83 152.84L296.46 149.15L295.94 145.5L295.28 141.9L294.48 138.35L293.54 134.85L292.47 131.41L291.27 128.03L289.94 124.71L288.49 121.46L286.92 118.27L285.23 115.16L283.42 112.12L281.5 109.15L279.47 106.27L277.33 103.47L275.09 100.75L272.75 98.13L270.32 95.6L267.78 93.16L265.15 90.82L262.44 88.58L259.64 86.44L256.76 84.42L253.8 82.5L250.76 80.69L247.64 79L244.46 77.42L241.2 75.97L237.88 74.64L234.5 73.44L231.06 72.37L227.57 71.43L224.01 70.63L220.41 69.97L216.76 69.44L213.07 69.07L209.33 68.85L205.56 68.77L201.78 68.85L198.05 69.07Z"
    id="a1g1WNqCSZ"/>
  <path
    d="M365.83 595.38L434.52 595.38L434.52 572.48L457.41 572.48L457.41 549.58L526.1 549.58L526.1 526.68L549 526.68L549 503.79L503.2 503.79L503.2 480.89L434.52 480.89L434.52 458L480.31 458L480.31 435.1L571.89 435.1L571.89 412.21L526.1 412.21C526.1 398.47 526.1 390.84 526.1 389.31C590.25 389.31 625.89 389.31 633.02 389.31C637.06 370.8 639.3 351.64 640 332.07C576.01 332.07 64.06 332.07 0.07 332.07C6.15 503.77 146.86 641.16 320.03 641.16C343.65 641.16 366.58 638.44 388.73 633.61C388.73 632.58 388.73 627.47 388.73 618.26C387.2 618.26 379.57 618.26 365.83 618.26L365.83 595.38Z"
    id="axsWmCqVB"/></defs><g><g><g>
  <use xlink:href="#a1g1WNqCSZ" opacity="1" fill="#ffffff" fill-opacity="0.38"/><g>
  <use xlink:href="#a1g1WNqCSZ" opacity="1" fill-opacity="0" stroke="#ffffff" stroke-width="1" stroke-opacity="0"/></g></g><g>
  <use xlink:href="#axsWmCqVB" opacity="1" fill="#ffffff" fill-opacity="0.38"/><g>
  <use xlink:href="#axsWmCqVB" opacity="1" fill-opacity="0" stroke="#ffffff" stroke-width="1" stroke-opacity="0"/></g></g></g></g></svg>
